<?xml version="1.0" encoding="UTF-8"?>
<svg version="1.1" xmlns="http://www.w3.org/2000/svg" width="200" height="200">
<path d="M0 0 C2.49809612 0.99673618 4.9973829 1.72095592 7.58984375 2.43359375 C13.40842499 4.15728004 17.62498011 6.21383238 20.71484375 11.62109375 C22.6779644 16.08574366 23.29585703 20.12836909 22.33984375 24.93359375 C19.85199615 31.15321274 16.28690798 34.12837477 10.33984375 36.93359375 C9.34984375 37.42859375 9.34984375 37.42859375 8.33984375 37.93359375 C1.87857566 38.48115884 -1.28069794 37.51989929 -6.66015625 33.93359375 C-6.66015625 33.27359375 -6.66015625 32.61359375 -6.66015625 31.93359375 C-7.32015625 31.93359375 -7.98015625 31.93359375 -8.66015625 31.93359375 C-8.84449219 31.39089844 -9.02882813 30.84820312 -9.21875 30.2890625 C-10.55181046 27.00084671 -11.54985827 24.56142828 -14.71875 22.76953125 C-17.03307393 21.99678903 -19.2655178 21.40244691 -21.66015625 20.93359375 C-22.54703125 20.75183594 -23.43390625 20.57007812 -24.34765625 20.3828125 C-42.42168744 17.93173516 -59.42101907 20.38094367 -74.578125 30.97265625 C-87.98879385 41.44222669 -95.03506423 53.92917937 -99.73828125 70.08203125 C-101.79956241 76.45802806 -105.53067378 79.96990275 -110.66015625 83.93359375 C-109.34015625 84.26359375 -108.02015625 84.59359375 -106.66015625 84.93359375 C-106.66015625 84.27359375 -106.66015625 83.61359375 -106.66015625 82.93359375 C-106.00015625 82.93359375 -105.34015625 82.93359375 -104.66015625 82.93359375 C-104.66015625 82.27359375 -104.66015625 81.61359375 -104.66015625 80.93359375 C-103.54216913 80.04329069 -102.39004913 79.19555029 -101.22265625 78.37109375 C-98.40506217 76.08759798 -98.40506217 76.08759798 -97.18359375 72.78515625 C-97.126011 71.25136107 -97.07003738 69.71750468 -97.015625 68.18359375 C-96.36972871 64.09528316 -93.72043735 61.54820285 -90.66015625 58.93359375 C-87.67614112 57.21778505 -86.26997576 56.86583603 -82.84765625 57.24609375 C-77.8812705 56.75919319 -74.92639739 53.55294204 -71.66015625 49.93359375 C-70.01962557 47.20113429 -69.64966707 45.82031058 -69.34765625 42.55859375 C-68.37046175 37.40611367 -66.06338185 34.75673041 -61.84765625 31.55859375 C-58.41557438 30.57799893 -55.16320281 30.367717 -51.66015625 30.93359375 C-48.5167119 32.67995172 -46.19152899 34.40222101 -43.66015625 36.93359375 C-43.26760472 38.82185257 -42.91974984 40.71954865 -42.59765625 42.62109375 C-41.18524775 48.39596595 -39.32226777 51.5173756 -34.39453125 54.875 C-30.04888362 56.55738644 -26.21846356 55.84771213 -21.68359375 55.21875 C-17.32665144 54.80782392 -15.37430256 55.68963035 -11.66015625 57.93359375 C-10.59667969 58.97386719 -10.59667969 58.97386719 -9.51171875 60.03515625 C-5.58327584 62.65053057 -2.6309626 62.34140127 1.96484375 62.12109375 C3.57675489 62.0853313 5.1887403 62.05277104 6.80078125 62.0234375 C7.57905273 62.00522949 8.35732422 61.98702148 9.15917969 61.96826172 C16.41803015 61.85286127 22.75227088 61.77583418 28.33984375 66.93359375 C30.36773614 70.89767945 30.59266956 74.23038547 30.59863281 78.64819336 C30.60388977 79.62969612 30.60388977 79.62969612 30.60925293 80.63102722 C30.61801755 82.78277359 30.61223926 84.93418808 30.60546875 87.0859375 C30.60681708 88.58899498 30.60875902 90.09205204 30.61126709 91.59510803 C30.61421135 94.74142621 30.60994384 97.88763062 30.60058594 101.03393555 C30.5892016 105.05657244 30.59574874 109.07894212 30.60773087 113.10156918 C30.61497676 116.2046152 30.61264886 119.30759846 30.60747528 122.41064644 C30.60614582 123.89333694 30.60776175 125.37603323 30.61243439 126.85871696 C30.61754358 128.93583013 30.60972801 131.01251792 30.59863281 133.08959961 C30.59704163 134.26920761 30.59545044 135.44881561 30.59381104 136.66416931 C30.33105042 140.0467939 29.54792628 142.77501517 28.33984375 145.93359375 C27.67984375 145.93359375 27.01984375 145.93359375 26.33984375 145.93359375 C26.07816406 146.5265625 25.81648437 147.11953125 25.546875 147.73046875 C19.90260114 158.03263852 5.73120126 164.29882499 -4.84765625 168.30859375 C-5.47607422 168.54715088 -6.10449219 168.78570801 -6.75195312 169.03149414 C-28.93206578 176.96484105 -54.09588821 174.56051027 -75.16015625 164.62109375 C-92.78131217 155.12331122 -105.6997828 141.38819136 -115.28515625 123.93359375 C-115.64037354 123.29856934 -115.99559082 122.66354492 -116.36157227 122.00927734 C-118.71934286 117.53770532 -118.71934286 117.53770532 -118.43359375 114.62109375 C-117.86530604 113.38119328 -117.27012413 112.15352952 -116.66015625 110.93359375 C-117.58828125 110.41796875 -118.51640625 109.90234375 -119.47265625 109.37109375 C-123.19150006 106.8447533 -124.50685559 104.33055251 -125.66015625 99.93359375 C-125.27807358 96.04908663 -124.40820158 92.42968442 -122.66015625 88.93359375 C-122.00015625 88.93359375 -121.34015625 88.93359375 -120.66015625 88.93359375 C-120.66015625 88.27359375 -120.66015625 87.61359375 -120.66015625 86.93359375 C-121.27890625 86.89234375 -121.89765625 86.85109375 -122.53515625 86.80859375 C-124.66015625 85.93359375 -124.66015625 85.93359375 -125.8359375 83.390625 C-126.80716518 79.31699232 -126.54661746 75.83310133 -125.97265625 71.74609375 C-125.87380127 70.99360352 -125.77494629 70.24111328 -125.6730957 69.46582031 C-124.83442548 63.45008585 -123.60622433 57.69597715 -121.66015625 51.93359375 C-121.31082031 50.886875 -120.96148437 49.84015625 -120.6015625 48.76171875 C-116.29338661 36.72707661 -109.4746022 26.21479244 -100.66015625 16.93359375 C-100.00015625 16.93359375 -99.34015625 16.93359375 -98.66015625 16.93359375 C-98.66015625 16.27359375 -98.66015625 15.61359375 -98.66015625 14.93359375 C-71.24613801 -10.32110114 -33.6723939 -14.39901037 0 0 Z M-61.66015625 57.93359375 C-61.66015625 58.59359375 -61.66015625 59.25359375 -61.66015625 59.93359375 C-62.32015625 59.93359375 -62.98015625 59.93359375 -63.66015625 59.93359375 C-63.66015625 60.59359375 -63.66015625 61.25359375 -63.66015625 61.93359375 C-64.32015625 61.93359375 -64.98015625 61.93359375 -65.66015625 61.93359375 C-65.66015625 62.59359375 -65.66015625 63.25359375 -65.66015625 63.93359375 C-66.29179688 64.14371094 -66.9234375 64.35382813 -67.57421875 64.5703125 C-69.92191947 65.79047548 -69.92191947 65.79047548 -70.49609375 68.578125 C-70.67398438 69.62355469 -70.851875 70.66898438 -71.03515625 71.74609375 C-72.59617457 78.63439681 -72.59617457 78.63439681 -75.22265625 81.12109375 C-78.64246978 82.92426816 -79.74082016 83.07501104 -83.41015625 83.12109375 C-89.53374446 83.46490674 -92.69005112 86.62369505 -96.69921875 91.03125 C-99.73644034 95.52657996 -100.6464657 99.5830832 -99.66015625 104.93359375 C-97.5780615 107.68317405 -97.5780615 107.68317405 -94.66015625 109.93359375 C-93.79890491 111.40614337 -92.98956025 112.90977798 -92.22265625 114.43359375 C-89.91173824 118.76565949 -87.84621546 121.31730674 -83.66015625 123.93359375 C-80.06179565 124.21039072 -77.98096277 122.61321498 -75.22265625 120.49609375 C-70.95144804 116.6014867 -68.44908578 111.93919605 -65.66015625 106.93359375 C-59.46552618 96.12600514 -53.38642337 85.79016617 -43.72265625 77.68359375 C-40.9047838 75.26548867 -39.76398695 74.19069834 -38.34765625 70.68359375 C-38.43652967 67.8055414 -38.43652967 67.8055414 -40.47265625 65.55859375 C-42.47356609 63.73481908 -42.47356609 63.73481908 -44.66015625 63.93359375 C-44.66015625 63.27359375 -44.66015625 62.61359375 -44.66015625 61.93359375 C-46.41028231 59.55514534 -46.41028231 59.55514534 -49.66015625 57.93359375 C-53.68202798 57.5884136 -57.63364979 57.70240678 -61.66015625 57.93359375 Z M-7.66015625 83.93359375 C-7.66015625 84.59359375 -7.66015625 85.25359375 -7.66015625 85.93359375 C-8.32015625 85.93359375 -8.98015625 85.93359375 -9.66015625 85.93359375 C-9.66015625 86.59359375 -9.66015625 87.25359375 -9.66015625 87.93359375 C-19.06846317 91.17251908 -19.06846317 91.17251908 -23.72265625 90.68359375 C-31.04053972 91.14822127 -35.72635295 96.7743579 -40.59765625 101.87109375 C-44.62681026 106.53979602 -47.6888914 111.70675634 -50.86328125 116.96923828 C-54.87920283 123.52454855 -59.53015896 129.4963702 -65.4765625 134.4453125 C-66.87375168 135.88065553 -66.87375168 135.88065553 -66.63671875 137.95703125 C-64.25569256 142.77622826 -56.88265806 144.50464575 -52.09765625 146.18359375 C-34.90016945 149.93577269 -16.97149859 148.33332445 -1.68359375 139.14453125 C3.69089288 135.25693429 5.62828072 132.86474837 6.94898987 126.44796753 C7.57967317 122.39076451 7.58621173 118.40245003 7.53515625 114.3046875 C7.53091141 112.9920266 7.53091141 112.9920266 7.52658081 111.65284729 C7.51549769 108.8921162 7.49041632 106.1317247 7.46484375 103.37109375 C7.45479857 101.48503077 7.44567543 99.59896264 7.4375 97.71289062 C7.41559743 93.11966332 7.38115139 88.52668586 7.33984375 83.93359375 C2.38984375 83.93359375 -2.56015625 83.93359375 -7.66015625 83.93359375 Z " fill="#EDF0F2" transform="translate(146.66015625,19.06640625)"/>
<path d="M0 0 C4.37537287 -0.08102542 8.74924085 -0.14052099 13.125 -0.1875 C14.98125 -0.22520508 14.98125 -0.22520508 16.875 -0.26367188 C18.07382813 -0.27333984 19.27265625 -0.28300781 20.5078125 -0.29296875 C21.60754395 -0.3086792 22.70727539 -0.32438965 23.84033203 -0.34057617 C27.51080657 0.05505912 29.86406674 1.07502463 33 3 C35.41960696 6.62941044 35.26348847 8.34844167 35.29052734 12.67114258 C35.29724457 13.34469284 35.30396179 14.0182431 35.31088257 14.71220398 C35.32988518 16.93972142 35.33378815 19.16693779 35.3359375 21.39453125 C35.34236499 22.94528833 35.34909331 24.49604418 35.35610962 26.04679871 C35.36808881 29.29921274 35.3717899 32.55152053 35.37060547 35.80395508 C35.37040249 39.9636018 35.39767868 44.12256364 35.43214989 48.28204823 C35.45443484 51.48633425 35.4584425 54.69045605 35.45738602 57.89481163 C35.45974058 59.42776533 35.46855602 60.96072365 35.48405075 62.49360085 C35.50373994 64.64310613 35.49786256 66.79114278 35.48583984 68.94067383 C35.48868988 70.16184402 35.49153992 71.38301422 35.49447632 72.64118958 C34.21998244 81.29839554 26.41645838 86.45121518 20.01171875 91.59765625 C15.18784205 95.11018783 9.97751385 97.45837491 4.5 99.75 C3.80003906 100.04398682 3.10007812 100.33797363 2.37890625 100.64086914 C-16.53007785 108.24451673 -41.23856978 107.95015493 -60.03955078 100.15429688 C-68.96223281 96.28362385 -76.80806067 91.61153721 -84 85 C-84.75539063 84.32453125 -85.51078125 83.6490625 -86.2890625 82.953125 C-95.32219137 74.44770469 -102.96074936 63.34325438 -108 52 C-108 51.01 -108 50.02 -108 49 C-107.00419922 48.85304688 -107.00419922 48.85304688 -105.98828125 48.703125 C-100.62714274 47.79525337 -96.97963587 46.97963587 -93 43 C-88.9558048 44.48170945 -87.86599382 46.59230601 -86 50.375 C-84.08826409 54.22964142 -82.36108409 57.25234571 -79 60 C-74.4540458 60.58657474 -72.10079424 60.49423415 -67.9375 58.625 C-61.53123692 52.90025427 -57.64670123 45.44766107 -53.5625 38 C-47.38242912 26.76493464 -39.4704165 16.57483672 -29 9 C-28.65388672 9.90492187 -28.65388672 9.90492187 -28.30078125 10.828125 C-26.24364893 15.86931883 -24.58284169 18.81747105 -20 22 C-20 22.66 -20 23.32 -20 24 C-21.65234375 25.15625 -21.65234375 25.15625 -23.9375 26.5 C-33.87847417 33.01892543 -39.43776564 42.05427708 -45.46118164 52.02124023 C-49.10373422 57.92670592 -52.85490798 62.36473551 -58.234375 66.796875 C-60.69683584 69.86950313 -60.31379498 72.17908469 -60 76 C-58.14985947 76.96608323 -56.29466527 77.9224907 -54.4375 78.875 C-53.40496094 79.40867187 -52.37242188 79.94234375 -51.30859375 80.4921875 C-43.72424976 83.94857095 -37.02385017 84.33701149 -28.8125 84.3125 C-27.75224609 84.32861328 -26.69199219 84.34472656 -25.59960938 84.36132812 C-12.01842243 84.36960429 2.08667372 80.98109194 12.1875 71.375 C15.75387926 67.67846091 16.1270187 64.25095551 16.11352539 59.23144531 C16.11344986 58.29077209 16.11337433 57.35009888 16.11329651 56.38092041 C16.10813522 55.37349792 16.10297394 54.36607544 16.09765625 53.328125 C16.0962413 52.29057068 16.09482635 51.25301636 16.09336853 50.184021 C16.08777447 46.87265124 16.07522303 43.56134929 16.0625 40.25 C16.05748423 38.00390723 16.05292146 35.75781339 16.04882812 33.51171875 C16.03780698 28.00778641 16.02054639 22.5039047 16 17 C10.72 16.67 5.44 16.34 0 16 C0 10.72 0 5.44 0 0 Z " fill="#0E223D" transform="translate(139,84)"/>
<path d="M0 0 C3.04238175 1.20528862 6.02733366 2.23642991 9.16796875 3.140625 C9.93496094 3.36621094 10.70195312 3.59179688 11.4921875 3.82421875 C12.94959573 4.24548038 14.41067081 4.65424609 15.875 5.05078125 C20.44404599 6.46642259 23.25285246 8.25143893 25.8203125 12.359375 C27.44706511 16.37752892 27.42833062 20.22579201 26.66796875 24.453125 C24.05476036 29.58621291 21.12859634 32.6329158 15.66796875 34.453125 C11.0838001 34.82887653 8.60863851 34.88728027 4.41796875 32.953125 C1.76695384 30.54311144 1.18556065 29.59863082 -0.08203125 26.453125 C-1.72857248 22.77744375 -3.30149379 21.60200476 -7.01953125 20.078125 C-25.10612257 13.7433778 -43.1964795 15.16757939 -60.51953125 23.140625 C-78.25897402 32.6000885 -88.55110649 47.90444478 -94.33203125 66.828125 C-96.35557118 73.08870977 -98.84955123 77.33656471 -104.54296875 80.796875 C-108.05678116 82.52459672 -110.45053414 83.52508395 -114.39453125 83.203125 C-115.35359375 82.831875 -115.35359375 82.831875 -116.33203125 82.453125 C-116.87968477 73.83265289 -115.26962936 65.80389994 -113.33203125 57.453125 C-113.15027344 56.59976563 -112.96851563 55.74640625 -112.78125 54.8671875 C-107.56505737 34.07338557 -92.41340478 16.25548987 -74.38867188 5.26855469 C-51.02549035 -8.14278791 -24.9677037 -10.05173275 0 0 Z " fill="#0E213C" transform="translate(139.33203125,19.546875)"/>
<path d="M0 0 C4.29578915 2.30699788 4.29578915 2.30699788 6 5 C6.42578125 7.46484375 6.42578125 7.46484375 6.6875 10.25 C7.54256087 16.80546667 11.01612703 19.48860654 15.98046875 23.515625 C19.82119418 25.40369184 21.88313426 24.91064311 26 24 C32.61601151 23.39537329 36.79134458 24.91871 42.3125 28.5 C44 30 44 30 45 33 C45.09416778 35.01906808 45.12991192 37.04124313 45.125 39.0625 C45.12886719 40.65771484 45.12886719 40.65771484 45.1328125 42.28515625 C45 45 45 45 44 47 C45.14339844 46.98839844 46.28679687 46.97679687 47.46484375 46.96484375 C48.95572754 46.95546712 50.44661309 46.94636679 51.9375 46.9375 C52.69224609 46.92912109 53.44699219 46.92074219 54.22460938 46.91210938 C56.14994313 46.90347559 58.07535581 46.94775667 60 47 C61.57643226 48.57643226 61.13506317 50.16057868 61.14526367 52.34863281 C61.15164352 53.27339417 61.15802338 54.19815552 61.16459656 55.15093994 C61.16626579 56.66177155 61.16626579 56.66177155 61.16796875 58.203125 C61.17129715 59.2330658 61.17462555 60.26300659 61.17805481 61.32415771 C61.18312996 63.50988314 61.18546296 65.69561635 61.18530273 67.88134766 C61.18748161 71.22181069 61.20561018 74.56193956 61.22460938 77.90234375 C61.22754471 80.02343637 61.22952857 82.14453056 61.23046875 84.265625 C61.23765427 85.26474915 61.24483978 86.26387329 61.25224304 87.29327393 C61.23126086 93.6860067 60.81479652 98.55137481 56.25 103.375 C43.20815475 115.81784609 26.14192607 116.6634598 9.12109375 116.38671875 C1.75337759 116.07451784 -4.44908011 114.51107131 -11 111 C-12.10988281 110.42765625 -13.21976563 109.8553125 -14.36328125 109.265625 C-17 107 -17 107 -17.63671875 103.51171875 C-16.88229731 99.35082997 -16.02712487 98.45472744 -12.8125 95.8125 C-7.68785874 91.08652248 -4.18130809 85.9655308 -0.5 80.0625 C5.68184197 70.22684499 11.85454971 61.14030004 22 55 C22.66 55 23.32 55 24 55 C23.236875 54.2575 22.47375 53.515 21.6875 52.75 C18.59109796 49.58158861 16.40320511 47.20961534 15 43 C15.03480469 42.22527344 15.06960937 41.45054688 15.10546875 40.65234375 C15.25248698 35.7867404 14.74272248 32.94596748 11.6875 29.0546875 C7.09963693 24.58280536 2.3773607 21.35597308 -4.1875 20.875 C-9.78757802 21.4188396 -13.30171978 23.4765523 -17.234375 27.4375 C-19.8034125 31.16601461 -20.59732612 34.83022018 -21.26953125 39.265625 C-22.14823018 42.55487233 -23.40908968 43.84831067 -26 46 C-28 47 -28 47 -31.9375 46.9375 C-37.91338226 47.57673538 -41.47980657 50.9638777 -45.68359375 55.02734375 C-48.75192683 58.96495163 -49.67517521 62.44449332 -50.33984375 67.3359375 C-51.1618941 70.65332411 -52.33010271 71.90905894 -55 74 C-58.81295137 75.3872169 -62.06342367 75.37463053 -65.8125 73.875 C-69.22253869 70.9521097 -70.77221153 68.52943688 -71.4375 64.0625 C-70.88393677 60.1875574 -69.40826469 58.04574652 -67 55 C-65 54 -65 54 -63.00390625 54.03515625 C-55.24710752 54.1220324 -51.43248303 50.49449608 -46.15234375 45.34765625 C-43.31254756 42.2501653 -42.9411169 40.74873423 -42.75 36.6875 C-42.38156492 32.93671013 -42.06754318 32.08313007 -39.5625 29 C-36.30756834 26.45956553 -34.87235716 25.97249652 -30.875 25.875 C-25.03909743 25.31875081 -21.93042264 22.08123023 -18 18 C-17.34 17.34 -16.68 16.68 -16 16 C-15.72592615 13.99444499 -15.72592615 13.99444499 -15.6875 11.75 C-15.24452921 6.66403908 -13.61784136 4.52960133 -10 1 C-6.75167844 -0.62416078 -3.5102991 -0.54155172 0 0 Z M44 50 C44 50.66 44 51.32 44 52 C43.34 52 42.68 52 42 52 C42 52.66 42 53.32 42 54 C32.59169308 57.23892533 32.59169308 57.23892533 27.9375 56.75 C20.61961653 57.21462752 15.9338033 62.84076415 11.0625 67.9375 C7.03334599 72.60620227 3.97126485 77.77316259 0.796875 83.03564453 C-3.21904658 89.5909548 -7.87000271 95.56277645 -13.81640625 100.51171875 C-15.21359543 101.94706178 -15.21359543 101.94706178 -14.9765625 104.0234375 C-12.59553631 108.84263451 -5.22250181 110.571052 -0.4375 112.25 C16.7599868 116.00217894 34.68865766 114.3997307 49.9765625 105.2109375 C55.35104913 101.32334054 57.28843697 98.93115462 58.60914612 92.51437378 C59.23982942 88.45717076 59.24636798 84.46885628 59.1953125 80.37109375 C59.19106766 79.05843285 59.19106766 79.05843285 59.18673706 77.71925354 C59.17565394 74.95852245 59.15057257 72.19813095 59.125 69.4375 C59.11495482 67.55143702 59.10583168 65.66536889 59.09765625 63.77929688 C59.07575368 59.18606957 59.04130764 54.59309211 59 50 C54.05 50 49.1 50 44 50 Z " fill="#1379F7" transform="translate(95,53)"/>
<path d="M0 0 C5.10766397 0.18241657 7.6937752 0.45761396 11.375 4.0625 C17.15638501 8.87078061 24.7947167 7.35353471 31.86767578 7.06689453 C39.08611294 6.84044024 45.46025624 6.88639037 51 12 C53.02789239 15.9640857 53.25282581 19.29679172 53.25878906 23.71459961 C53.26404602 24.69610237 53.26404602 24.69610237 53.26940918 25.69743347 C53.2781738 27.84917984 53.27239551 30.00059433 53.265625 32.15234375 C53.26697333 33.65540123 53.26891527 35.15845829 53.27142334 36.66151428 C53.2743676 39.80783246 53.27010009 42.95403687 53.26074219 46.1003418 C53.24935785 50.12297869 53.25590499 54.14534837 53.26788712 58.16797543 C53.27513301 61.27102145 53.27280511 64.37400471 53.26763153 67.47705269 C53.26630207 68.95974319 53.267918 70.44243948 53.27259064 71.92512321 C53.27769983 74.00223638 53.26988426 76.07892417 53.25878906 78.15600586 C53.25719788 79.33561386 53.25560669 80.51522186 53.25396729 81.73057556 C52.99120667 85.11320015 52.20808253 87.84142142 51 91 C50.34 91 49.68 91 49 91 C48.73832031 91.59296875 48.47664062 92.1859375 48.20703125 92.796875 C42.56275739 103.09904477 28.39135751 109.36523124 17.8125 113.375 C17.18408203 113.61355713 16.55566406 113.85211426 15.90820312 114.09790039 C-6.27190953 122.0312473 -31.43573196 119.62691652 -52.5 109.6875 C-70.5078317 99.98129968 -87.86494601 83.68290756 -95 64 C-94.17578125 61.625 -94.17578125 61.625 -93 60 C-92.53851563 60.93199219 -92.07703125 61.86398438 -91.6015625 62.82421875 C-80.29539775 85.13025986 -64.10194029 102.742336 -40 111 C-30.75792427 113.69993224 -22.03542557 114.46626395 -12.4375 114.375 C-10.60155273 114.39240234 -10.60155273 114.39240234 -8.72851562 114.41015625 C11.04086417 114.34702891 29.98799321 106.75322029 44.17578125 92.87109375 C48.32672982 88.12573727 49.12722662 85.61491738 49.17700195 79.41064453 C49.18685875 78.3957193 49.18685875 78.3957193 49.19691467 77.36029053 C49.21664996 75.11779676 49.22830998 72.87536993 49.23828125 70.6328125 C49.24235678 69.86735989 49.2464323 69.10190727 49.25063133 68.31325912 C49.27149193 64.26271585 49.2857943 60.21220647 49.29516602 56.16162109 C49.30623745 51.97600833 49.34064521 47.79092619 49.38033772 43.60550117 C49.40646852 40.38844812 49.41485461 37.17152226 49.41844749 33.95437241 C49.42332177 32.41137987 49.43495976 30.86839332 49.45348549 29.3255043 C49.47780603 27.16595496 49.47692605 25.00778857 49.4699707 22.84814453 C49.47583694 21.61951691 49.48170319 20.39088928 49.48774719 19.12503052 C48.90540238 15.39390643 47.97395253 14.25236926 45 12 C41.7828713 10.92762377 39.42851749 10.87463971 36.046875 10.859375 C34.86996094 10.84003906 33.69304687 10.82070312 32.48046875 10.80078125 C30.0092763 10.76714198 27.53782626 10.74871456 25.06640625 10.74609375 C17.54995872 10.59035492 13.68101897 9.94361518 8 5 C5.44545235 3.83333799 5.44545235 3.83333799 3.0625 3.1875 C2.29035156 2.95417969 1.51820312 2.72085938 0.72265625 2.48046875 C0.15417969 2.32191406 -0.41429688 2.16335937 -1 2 C-0.67 1.34 -0.34 0.68 0 0 Z " fill="#EFF0F1" transform="translate(124,74)"/>
<path d="M0 0 C0.68900391 0.00515625 1.37800781 0.0103125 2.08789062 0.015625 C7.15788899 0.09538899 7.15788899 0.09538899 8.3125 1.25 C8.41589205 2.69666281 8.45100234 4.14829579 8.45776367 5.59863281 C8.46414352 6.52339417 8.47052338 7.44815552 8.47709656 8.40093994 C8.47820938 9.40816101 8.4793222 10.41538208 8.48046875 11.453125 C8.48546135 12.99803619 8.48546135 12.99803619 8.49055481 14.57415771 C8.49562996 16.75988314 8.49796296 18.94561635 8.49780273 21.13134766 C8.49998161 24.47181069 8.51811018 27.81193956 8.53710938 31.15234375 C8.54004471 33.27343637 8.54202857 35.39453056 8.54296875 37.515625 C8.55015427 38.51474915 8.55733978 39.51387329 8.56474304 40.54327393 C8.54376086 46.9360067 8.12729652 51.80137481 3.5625 56.625 C-9.47934525 69.06784609 -26.54557393 69.9134598 -43.56640625 69.63671875 C-50.93412241 69.32451784 -57.13658011 67.76107131 -63.6875 64.25 C-65.35232422 63.39148438 -65.35232422 63.39148438 -67.05078125 62.515625 C-69.6875 60.25 -69.6875 60.25 -70.32421875 56.76171875 C-69.56979731 52.60082997 -68.71462487 51.70472744 -65.5 49.0625 C-60.37522473 44.33639891 -56.86939851 39.21527794 -53.1875 33.3125 C-39.19665625 11.09247029 -39.19665625 11.09247029 -28.6875 7.25 C-25.86316336 6.82978396 -23.0894101 6.62633992 -20.23828125 6.484375 C-16.09116616 6.10332308 -13.01043578 4.4990975 -10.0078125 1.6640625 C-6.74555969 -0.32404443 -3.69699027 -0.11256298 0 0 Z M-8.6875 3.25 C-8.6875 3.91 -8.6875 4.57 -8.6875 5.25 C-9.3475 5.25 -10.0075 5.25 -10.6875 5.25 C-10.6875 5.91 -10.6875 6.57 -10.6875 7.25 C-20.09580692 10.48892533 -20.09580692 10.48892533 -24.75 10 C-32.06788347 10.46462752 -36.7536967 16.09076415 -41.625 21.1875 C-45.65415401 25.85620227 -48.71623515 31.02316259 -51.890625 36.28564453 C-55.90654658 42.8409548 -60.55750271 48.81277645 -66.50390625 53.76171875 C-67.90109543 55.19706178 -67.90109543 55.19706178 -67.6640625 57.2734375 C-65.28303631 62.09263451 -57.91000181 63.821052 -53.125 65.5 C-35.9275132 69.25217894 -17.99884234 67.6497307 -2.7109375 58.4609375 C2.66354913 54.57334054 4.60093697 52.18115462 5.92164612 45.76437378 C6.55232942 41.70717076 6.55886798 37.71885628 6.5078125 33.62109375 C6.50356766 32.30843285 6.50356766 32.30843285 6.49923706 30.96925354 C6.48815394 28.20852245 6.46307257 25.44813095 6.4375 22.6875 C6.42745482 20.80143702 6.41833168 18.91536889 6.41015625 17.02929688 C6.38825368 12.43606957 6.35380764 7.84309211 6.3125 3.25 C1.3625 3.25 -3.5875 3.25 -8.6875 3.25 Z " fill="#E4E6E8" transform="translate(147.6875,99.75)"/>
<path d="M0 0 C5.10766397 0.18241657 7.6937752 0.45761396 11.375 4.0625 C17.15638501 8.87078061 24.7947167 7.35353471 31.86767578 7.06689453 C39.08611294 6.84044024 45.46025624 6.88639037 51 12 C52.92385511 15.81198774 53.24460862 18.92701805 53.22705078 23.16723633 C53.22689972 24.38812454 53.22674866 25.60901276 53.22659302 26.86689758 C53.21627045 28.17539169 53.20594788 29.4838858 53.1953125 30.83203125 C53.19157922 32.19251802 53.18873373 33.5530075 53.18673706 34.91349792 C53.17912538 38.48261017 53.15949834 42.05155791 53.1373291 45.62060547 C53.11681735 49.26722997 53.10772398 52.91388123 53.09765625 56.56054688 C53.07624991 63.70709827 53.04214397 70.85353836 53 78 C52.67 78 52.34 78 52 78 C51.67 79.65 51.34 81.3 51 83 C50.67 83 50.34 83 50 83 C49.99453156 81.75425201 49.99453156 81.75425201 49.98895264 80.4833374 C49.9510807 72.65535552 49.89423744 64.82779061 49.81609726 57.000103 C49.77659333 52.97580081 49.74441943 48.95171837 49.72900391 44.92724609 C49.7138561 41.04310759 49.67944514 37.15957312 49.63169098 33.27570343 C49.61685758 31.79420472 49.60895786 30.31261978 49.60811615 28.83104706 C49.6057504 26.75487429 49.57870794 24.68037623 49.54589844 22.60449219 C49.53701599 21.42312683 49.52813354 20.24176147 49.51898193 19.02459717 C48.89375314 15.38079937 47.90092028 14.2224136 45 12 C41.7828713 10.92762377 39.42851749 10.87463971 36.046875 10.859375 C34.86996094 10.84003906 33.69304687 10.82070312 32.48046875 10.80078125 C30.0092763 10.76714198 27.53782626 10.74871456 25.06640625 10.74609375 C17.54995872 10.59035492 13.68101897 9.94361518 8 5 C5.44545235 3.83333799 5.44545235 3.83333799 3.0625 3.1875 C2.29035156 2.95417969 1.51820312 2.72085938 0.72265625 2.48046875 C0.15417969 2.32191406 -0.41429688 2.16335937 -1 2 C-0.67 1.34 -0.34 0.68 0 0 Z " fill="#CDCFD3" transform="translate(124,74)"/>
<path d="M0 0 C0.33 0 0.66 0 1 0 C1.05449838 1.72880982 1.09301688 3.45812712 1.125 5.1875 C1.14820313 6.15042969 1.17140625 7.11335937 1.1953125 8.10546875 C0.80866624 13.83556629 -1.58087846 17.30550409 -5.62109375 21.16015625 C-20.58411205 32.73253986 -38.78751492 33.56349889 -57 32 C-64.29750631 30.68671417 -71.23773383 27.67810646 -77 23 C-77.71875 20.61328125 -77.71875 20.61328125 -77 18 C-75.21336981 15.8508231 -73.53604497 14.06096153 -71.5 12.1875 C-70.71302734 11.43436523 -70.71302734 11.43436523 -69.91015625 10.66601562 C-68.61777468 9.43237867 -67.31030401 8.21458375 -66 7 C-66 10 -66 10 -67.78515625 11.90234375 C-69.30354187 13.2592544 -70.82438067 14.6134249 -72.34765625 15.96484375 C-74.19700762 17.83446122 -74.19700762 17.83446122 -74.109375 20.08984375 C-71.50978934 24.5658909 -64.6724087 25.5704955 -60 27 C-42.54756969 31.22760734 -26.20677553 28.75518978 -10.28125 20.609375 C-6.23179146 18.00615165 -4.37052044 16.10788066 -2.8203125 11.47265625 C-2.07769576 7.98943009 -1.52849139 4.52013012 -1 1 C-0.67 0.67 -0.34 0.34 0 0 Z " fill="#EDEEEF" transform="translate(155,137)"/>
<path d="M0 0 C0.66 0.33 1.32 0.66 2 1 C3.53668865 1.22467831 5.07968054 1.40796805 6.625 1.5625 C7.44226563 1.64628906 8.25953125 1.73007813 9.1015625 1.81640625 C9.72804687 1.87699219 10.35453125 1.93757813 11 2 C11 2.33 11 2.66 11 3 C7.37 3 3.74 3 0 3 C0 3.66 0 4.32 0 5 C-0.66 5 -1.32 5 -2 5 C-2 5.66 -2 6.32 -2 7 C-2.66 7 -3.32 7 -4 7 C-4 7.66 -4 8.32 -4 9 C-4.639375 9.53625 -5.27875 10.0725 -5.9375 10.625 C-8.39306206 13.45261692 -8.31952018 15.33262966 -8.59765625 18.96875 C-9.31471563 22.58885563 -11.42629257 24.42629257 -14 27 C-18.08430208 29.72286806 -20.14590877 29.38524534 -25 29 C-25.66 28.01 -26.32 27.02 -27 26 C-26.39671875 25.93941406 -25.7934375 25.87882812 -25.171875 25.81640625 C-23.97304688 25.69072266 -23.97304688 25.69072266 -22.75 25.5625 C-21.96109375 25.48128906 -21.1721875 25.40007812 -20.359375 25.31640625 C-18.1426664 25.01913242 -16.11226505 24.73975802 -14 24 C-12.7983442 21.32965379 -12.08476849 18.83669641 -11.7890625 15.91796875 C-10.78320061 8.15652093 -5.95277136 4.64579757 0 0 Z " fill="#EAEFF6" transform="translate(85,74)"/>
<path d="M0 0 C2.47923801 -0.02685095 4.9581884 -0.04676547 7.4375 -0.0625 C8.14455078 -0.07087891 8.85160156 -0.07925781 9.58007812 -0.08789062 C11.38693559 -0.09653588 13.19387603 -0.05220011 15 0 C16 1 16 1 16.11352539 4.41821289 C16.11336628 5.93636988 16.10767226 7.45453229 16.09765625 8.97265625 C16.0962413 9.77029892 16.09482635 10.56794159 16.09336853 11.38975525 C16.08775316 13.94737435 16.07519812 16.50490718 16.0625 19.0625 C16.05748698 20.79231645 16.05292373 22.52213426 16.04882812 24.25195312 C16.03777875 28.50133553 16.02050386 32.75065312 16 37 C15.01 37.495 15.01 37.495 14 38 C12.7812625 34.20462369 12.88661872 30.57208379 12.90234375 26.609375 C12.9037587 25.90476135 12.90517365 25.20014771 12.90663147 24.47418213 C12.91221067 22.23274416 12.92475927 19.99140757 12.9375 17.75 C12.94251769 16.22656395 12.94708013 14.70312632 12.95117188 13.1796875 C12.96217326 9.45309228 12.97942354 5.72655604 13 2 C8.71 1.67 4.42 1.34 0 1 C0 0.67 0 0.34 0 0 Z " fill="#D1D2D3" transform="translate(140,100)"/>
<path d="M0 0 C5.28606949 2.12165484 10.44383647 3.7788774 16 5.0625 C16 6.0525 16 7.0425 16 8.0625 C8.51355493 7.79981772 2.35733199 5.42115526 -4.44921875 2.53515625 C-10.39508614 0.06915844 -15.63923792 -1.27949013 -22 -1.9375 C-22 -2.2675 -22 -2.5975 -22 -2.9375 C-13.98171433 -4.74161428 -7.38781 -3.00851247 0 0 Z " fill="#E5E6E8" transform="translate(141,16.9375)"/>
<path d="M0 0 C1.79290412 3.58580825 1.07644688 7.23544274 0 11 C-1.97994752 14.0653733 -4.36264395 16.49342194 -7 19 C-7.50015625 19.53109375 -8.0003125 20.0621875 -8.515625 20.609375 C-11.37498228 23.40588926 -13.48429791 24.29198663 -17.375 24.3125 C-18.57125 24.209375 -19.7675 24.10625 -21 24 C-21 23.67 -21 23.34 -21 23 C-19.865625 22.71125 -18.73125 22.4225 -17.5625 22.125 C-16.386875 21.75375 -15.21125 21.3825 -14 21 C-13.67 20.34 -13.34 19.68 -13 19 C-12.34 19 -11.68 19 -11 19 C-11 18.34 -11 17.68 -11 17 C-9.88201288 16.10969694 -8.72989288 15.26195654 -7.5625 14.4375 C-5.24940419 12.56013767 -4.14890596 11.59462449 -3.41796875 8.67578125 C-3.22079872 6.27334866 -3.22079872 6.27334866 -3.265625 3.953125 C-3.17796875 3.30859375 -3.0903125 2.6640625 -3 2 C-2.01 1.34 -1.02 0.68 0 0 Z " fill="#DEEAF9" transform="translate(53,83)"/>
<path d="M0 0 C0.99 0.33 1.98 0.66 3 1 C1.52659854 5.10881542 -0.47725281 8.5456387 -2.875 12.1875 C-3.55304688 13.23292969 -4.23109375 14.27835938 -4.9296875 15.35546875 C-6.99429333 17.99271054 -8.04947435 18.6854662 -11 20 C-12.4610504 21.32774288 -13.87708074 22.70631676 -15.25 24.125 C-15.95640625 24.84945312 -16.6628125 25.57390625 -17.390625 26.3203125 C-17.92171875 26.87460938 -18.4528125 27.42890625 -19 28 C-19 25 -19 25 -17.3828125 23.30078125 C-16.63773437 22.64464844 -15.89265625 21.98851562 -15.125 21.3125 C-8.68316089 15.14717863 -4.48322222 7.62802945 0 0 Z " fill="#DFE1E4" transform="translate(98,127)"/>
<path d="M0 0 C0.33 0 0.66 0 1 0 C1.05449838 1.72880982 1.09301688 3.45812712 1.125 5.1875 C1.14820313 6.15042969 1.17140625 7.11335937 1.1953125 8.10546875 C0.85701858 13.11898469 -0.80658609 16.22037295 -4.375 19.6875 C-4.96023437 20.26886719 -5.54546875 20.85023438 -6.1484375 21.44921875 C-8.05452968 23.04567148 -9.66919736 24.1317528 -12 25 C-12.99 24.67 -13.98 24.34 -15 24 C-13.86111328 23.26910156 -13.86111328 23.26910156 -12.69921875 22.5234375 C-6.54223804 18.13129821 -3.38472317 15.07184234 -1.875 7.5 C-1.57424666 5.33457595 -1.27996121 3.16821023 -1 1 C-0.67 0.67 -0.34 0.34 0 0 Z " fill="#F4F4F5" transform="translate(155,137)"/>
<path d="M0 0 C1.47668858 0.0133035 2.95331108 0.03716415 4.4296875 0.0703125 C5.18378906 0.07933594 5.93789062 0.08835937 6.71484375 0.09765625 C8.57826004 0.1212438 10.44151343 0.15711531 12.3046875 0.1953125 C11.9746875 0.8553125 11.6446875 1.5153125 11.3046875 2.1953125 C6.6846875 2.1953125 2.0646875 2.1953125 -2.6953125 2.1953125 C-2.6953125 2.8553125 -2.6953125 3.5153125 -2.6953125 4.1953125 C-3.3553125 4.1953125 -4.0153125 4.1953125 -4.6953125 4.1953125 C-4.6953125 4.8553125 -4.6953125 5.5153125 -4.6953125 6.1953125 C-7.04969983 7.62476195 -8.17563683 8.28192511 -10.9453125 7.8203125 C-11.5228125 7.6140625 -12.1003125 7.4078125 -12.6953125 7.1953125 C-11.19542311 4.19553372 -8.64372124 3.63943107 -5.6953125 2.1953125 C-3.6953125 0.1953125 -3.6953125 0.1953125 0 0 Z " fill="#F5F7FA" transform="translate(141.6953125,100.8046875)"/>
<path d="M0 0 C0 3 0 3 -1.78515625 4.90234375 C-3.30354187 6.2592544 -4.82438067 7.6134249 -6.34765625 8.96484375 C-8.23167723 10.84064586 -8.23167723 10.84064586 -7.96875 13.14453125 C-6.31754227 16.30712671 -3.206945 16.83383818 0 18 C-0.33 18.99 -0.66 19.98 -1 21 C-8.24705882 18.85882353 -8.24705882 18.85882353 -11 16 C-11.4453125 13.7578125 -11.4453125 13.7578125 -11 11 C-9.21336981 8.8508231 -7.53604497 7.06096153 -5.5 5.1875 C-4.97535156 4.68541016 -4.45070313 4.18332031 -3.91015625 3.66601562 C-2.61777468 2.43237867 -1.31030401 1.21458375 0 0 Z " fill="#F4F4F5" transform="translate(89,144)"/>
<path d="M0 0 C0.92619141 0.19916016 0.92619141 0.19916016 1.87109375 0.40234375 C7.57627325 1.59200827 13.19930684 2.4386426 19 3 C18.67 3.99 18.34 4.98 18 6 C11.97322053 6.32873343 6.43037473 5.8874859 1 3 C0.67 2.01 0.34 1.02 0 0 Z " fill="#E2E4E7" transform="translate(88,163)"/>
<path d="M0 0 C0.66 0.33 1.32 0.66 2 1 C3.53668865 1.22467831 5.07968054 1.40796805 6.625 1.5625 C7.44226563 1.64628906 8.25953125 1.73007813 9.1015625 1.81640625 C9.72804688 1.87699219 10.35453125 1.93757813 11 2 C11 2.33 11 2.66 11 3 C7.37 3 3.74 3 0 3 C0 3.66 0 4.32 0 5 C-0.66 5 -1.32 5 -2 5 C-2 5.66 -2 6.32 -2 7 C-2.66 7 -3.32 7 -4 7 C-4 7.66 -4 8.32 -4 9 C-8.47058824 13 -8.47058824 13 -11 13 C-9.63422544 8.71506993 -7.79318655 6.56854295 -4.375 3.6875 C-3.55773437 2.99011719 -2.74046875 2.29273437 -1.8984375 1.57421875 C-0.95871094 0.79498047 -0.95871094 0.79498047 0 0 Z " fill="#DCE1E7" transform="translate(85,74)"/>
<path d="M0 0 C0.88945313 0.00322266 1.77890625 0.00644531 2.6953125 0.00976562 C4.07589844 0.02233398 4.07589844 0.02233398 5.484375 0.03515625 C6.42023438 0.03966797 7.35609375 0.04417969 8.3203125 0.04882812 C10.62506541 0.06058707 12.92968727 0.07702199 15.234375 0.09765625 C12.70364025 2.628391 11.52509442 2.4599086 8.0078125 2.73046875 C6.4609375 2.85615234 6.4609375 2.85615234 4.8828125 2.984375 C3.26246094 3.10232422 3.26246094 3.10232422 1.609375 3.22265625 C-0.02257812 3.35220703 -0.02257812 3.35220703 -1.6875 3.484375 C-4.37968377 3.69691582 -7.07224328 3.90098057 -9.765625 4.09765625 C-9.435625 3.10765625 -9.105625 2.11765625 -8.765625 1.09765625 C-5.87384683 -0.018967 -3.07276197 -0.01969719 0 0 Z " fill="#F6F7F7" transform="translate(99.765625,35.90234375)"/>
<path d="M0 0 C-1.69636171 2.10407096 -2.54981464 2.93240678 -5.26831055 3.34057617 C-6.13238525 3.32486572 -6.99645996 3.30915527 -7.88671875 3.29296875 C-8.82451172 3.28330078 -9.76230469 3.27363281 -10.72851562 3.26367188 C-11.70498047 3.23853516 -12.68144531 3.21339844 -13.6875 3.1875 C-14.67556641 3.17396484 -15.66363281 3.16042969 -16.68164062 3.14648438 C-19.12164231 3.11112203 -21.56054719 3.06177033 -24 3 C-24.33 2.34 -24.66 1.68 -25 1 C-16.65080904 0.37659374 -8.37760553 -0.17740812 0 0 Z " fill="#FAFAFA" transform="translate(128,189)"/>
<path d="M0 0 C0.33 0.66 0.66 1.32 1 2 C1.66 2 2.32 2 3 2 C1.6702786 7.45185773 -0.93447027 11.2262547 -5 15 C-7.1953125 16.203125 -7.1953125 16.203125 -9 17 C-9 15.68 -9 14.36 -9 13 C-7.52396054 11.81916843 -6.04435623 10.64204997 -4.53515625 9.50390625 C-1.80745787 6.83173353 -1.09782295 3.59841968 0 0 Z " fill="#E5E6E8" transform="translate(44,86)"/>
<path d="M0 0 C3.63 0 7.26 0 11 0 C11 0.99 11 1.98 11 3 C6.6835078 3.76173392 3.25566547 4.16063604 -1 3 C-0.67 2.01 -0.34 1.02 0 0 Z " fill="#D3DDE8" transform="translate(119,107)"/>
<path d="M0 0 C0.33 0 0.66 0 1 0 C0.47462276 5.0302076 -0.10594786 10.01885239 -1 15 C-1.99 14.34 -2.98 13.68 -4 13 C-3.71812064 11.20676747 -3.4241719 9.41542874 -3.125 7.625 C-2.96257813 6.62726563 -2.80015625 5.62953125 -2.6328125 4.6015625 C-2 2 -2 2 0 0 Z " fill="#E9EBEC" transform="translate(26,71)"/>
<path d="M0 0 C0 0.66 0 1.32 0 2 C-3.63 3.32 -7.26 4.64 -11 6 C-11 4.68 -11 3.36 -11 2 C-3.57142857 -1.57142857 -3.57142857 -1.57142857 0 0 Z " fill="#E5E6E8" transform="translate(91,39)"/>
<path d="M0 0 C7.59 0 15.18 0 23 0 C23 0.33 23 0.66 23 1 C21.46279297 1.09087891 21.46279297 1.09087891 19.89453125 1.18359375 C18.53384305 1.26805026 17.17316657 1.35269567 15.8125 1.4375 C15.13896484 1.47681641 14.46542969 1.51613281 13.77148438 1.55664062 C10.81957746 1.74383472 8.06908311 1.98217521 5.19921875 2.72265625 C4.47347656 2.81417969 3.74773437 2.90570313 3 3 C2.01 2.01 1.02 1.02 0 0 Z " fill="#D6D9DD" transform="translate(95,189)"/>
<path d="M0 0 C0 3.74706213 -1.04260246 4.76906031 -3.3125 7.6875 C-3.92738281 8.49574219 -4.54226562 9.30398437 -5.17578125 10.13671875 C-5.77777344 10.75160156 -6.37976563 11.36648437 -7 12 C-7.99 12 -8.98 12 -10 12 C-8.62968895 6.34746692 -4.32310587 3.4886459 0 0 Z " fill="#F2F2F3" transform="translate(109,116)"/>
<path d="M0 0 C-2.19126536 1.78547548 -4.04340363 3.01715957 -6.6875 4.0625 C-9.15938605 4.76803846 -9.15938605 4.76803846 -10 7 C-10.66 7 -11.32 7 -12 7 C-9.52030127 1.00739475 -6.36870588 -0.43422995 0 0 Z " fill="#F1F5FB" transform="translate(64,77)"/>
<path d="M0 0 C0 0.99 0 1.98 0 3 C-0.825 2.855625 -1.65 2.71125 -2.5 2.5625 C-6.32686278 1.94746848 -10.15216707 1.46439363 -14 1 C-14 0.67 -14 0.34 -14 0 C-8.97703996 -1.13016601 -5.02125926 -0.77916092 0 0 Z " fill="#DBDEE1" transform="translate(133,14)"/>
<path d="M0 0 C3.3 0 6.6 0 10 0 C10 0.99 10 1.98 10 3 C8.72125 3.061875 7.4425 3.12375 6.125 3.1875 C5.40570313 3.22230469 4.68640625 3.25710937 3.9453125 3.29296875 C3.30335937 3.19628906 2.66140625 3.09960938 2 3 C1.34 2.01 0.68 1.02 0 0 Z " fill="#D1DEED" transform="translate(58,100)"/>
<path d="M0 0 C0 0.99 0 1.98 0 3 C-3.3 3.33 -6.6 3.66 -10 4 C-9.67 3.01 -9.34 2.02 -9 1 C-5.8035914 -0.06546953 -3.34252724 -0.07427838 0 0 Z " fill="#ECECEE" transform="translate(102,11)"/>
<path d="M0 0 C0.99 0 1.98 0 3 0 C1.62845496 2.95409701 0.01136276 5.44008376 -2 8 C-2.66 7.67 -3.32 7.34 -4 7 C-2.92598892 4.08482708 -2.22189824 2.22189824 0 0 Z " fill="#E5E6E7" transform="translate(38,46)"/>
<path d="M0 0 C0.99 0.33 1.98 0.66 3 1 C-0.33333333 4.33333333 -3.66666667 7.66666667 -7 11 C-7.66 10.67 -8.32 10.34 -9 10 C-8.27683594 9.29423828 -8.27683594 9.29423828 -7.5390625 8.57421875 C-6.90742187 7.95160156 -6.27578125 7.32898438 -5.625 6.6875 C-4.68527344 5.76517578 -4.68527344 5.76517578 -3.7265625 4.82421875 C-1.81913393 2.91187472 -1.81913393 2.91187472 0 0 Z " fill="#FBFBFB" transform="translate(57,101)"/>
<path d="M0 0 C1.46726798 3.81489674 0.43336419 6.29011622 -1 10 C-1.66 9.34 -2.32 8.68 -3 8 C-2.54545455 2.54545455 -2.54545455 2.54545455 0 0 Z " fill="#F7F8F9" transform="translate(29,63)"/>
<path d="M0 0 C1.25541557 3.76624671 0.37061958 5.37188934 -1 9 C-1.33 8.34 -1.66 7.68 -2 7 C-2.66 6.67 -3.32 6.34 -4 6 C-2.25 1.125 -2.25 1.125 0 0 Z " fill="#E0E1E3" transform="translate(176,156)"/>
<path d="M0 0 C2.64 0 5.28 0 8 0 C8.33 0.66 8.66 1.32 9 2 C6.69 2.33 4.38 2.66 2 3 C2 2.34 2 1.68 2 1 C1.34 0.67 0.68 0.34 0 0 Z " fill="#EAEBEC" transform="translate(118,166)"/>
<path d="M0 0 C2.3431213 0.25561323 4.67843403 0.59270772 7 1 C7.33 1.66 7.66 2.32 8 3 C5.03 3 2.06 3 -1 3 C-0.67 2.01 -0.34 1.02 0 0 Z " fill="#FDFDFD" transform="translate(117,11)"/>
<path d="M0 0 C0.99 0.33 1.98 0.66 3 1 C1.8125 2.5625 1.8125 2.5625 0 4 C-2.6875 3.6875 -2.6875 3.6875 -5 3 C-2 1 -2 1 0 0 Z " fill="#E0E2E6" transform="translate(145,182)"/>
</svg>
