<svg width="16" height="16" viewBox="0 0 16 16" fill="none" xmlns="http://www.w3.org/2000/svg">
<path d="M13.3335 1.33331H5.3335C4.60016 1.33331 4.00016 1.93331 4.00016 2.66665V10.6666C4.00016 11.4 4.60016 12 5.3335 12H13.3335C14.0668 12 14.6668 11.4 14.6668 10.6666V2.66665C14.6668 1.93331 14.0668 1.33331 13.3335 1.33331ZM13.3335 10.6666H5.3335V2.66665H13.3335V10.6666ZM2.66683 3.99998H1.3335V13.3333C1.3335 14.0666 1.9335 14.6666 2.66683 14.6666H12.0002V13.3333H2.66683V3.99998ZM10.6668 7.99998V5.99998C10.6668 5.63331 10.3668 5.33331 10.0002 5.33331H8.66683V8.66665H10.0002C10.3668 8.66665 10.6668 8.36665 10.6668 7.99998ZM9.3335 5.99998H10.0002V7.99998H9.3335V5.99998ZM12.0002 7.33331H12.6668V6.66665H12.0002V5.99998H12.6668V5.33331H11.3335V8.66665H12.0002V7.33331ZM6.66683 7.33331H7.3335C7.70016 7.33331 8.00016 7.03331 8.00016 6.66665V5.99998C8.00016 5.63331 7.70016 5.33331 7.3335 5.33331H6.00016V8.66665H6.66683V7.33331ZM6.66683 5.99998H7.3335V6.66665H6.66683V5.99998Z" fill="#1065E5"/>
</svg>
